<?xml version="1.0" standalone="no"?>
<!DOCTYPE svg PUBLIC "-//W3C//DTD SVG 20010904//EN"
 "http://www.w3.org/TR/2001/REC-SVG-20010904/DTD/svg10.dtd">
<svg version="1.0" xmlns="http://www.w3.org/2000/svg"
 width="900.000000pt" height="900.000000pt" viewBox="0 0 900.000000 900.000000"
 preserveAspectRatio="xMidYMid meet">
<metadata>
Created by potrace 1.11, written by Peter Selinger 2001-2013
</metadata>
<g transform="translate(0.000000,900.000000) scale(0.100000,-0.100000)"
fill="#000000" stroke="none">
<path d="M4295 8993 c-118 -6 -362 -35 -495 -59 -1015 -185 -1917 -773 -2499
-1629 -363 -535 -581 -1128 -653 -1780 -17 -158 -17 -632 0 -790 71 -643 283
-1233 625 -1745 206 -308 396 -523 712 -804 992 -886 2460 -2177 2480 -2182
68 -17 67 -18 723 563 345 306 935 829 1312 1163 377 334 736 660 799 726 851
890 1225 2133 1010 3354 -135 772 -522 1507 -1087 2068 -770 763 -1837 1170
-2927 1115z m306 -733 c45 -118 83 -216 84 -218 1 -1 112 -9 245 -17 134 -8
245 -17 247 -19 2 -2 -79 -72 -181 -155 -102 -83 -187 -155 -190 -159 -2 -4
24 -113 58 -242 35 -129 62 -237 60 -239 -2 -2 -97 57 -212 131 l-208 134
-204 -132 c-113 -73 -208 -133 -211 -133 -3 -1 23 106 57 237 34 130 60 240
58 244 -3 4 -89 76 -191 160 -103 83 -183 153 -177 155 5 1 114 9 243 17 128
8 237 18 242 23 6 6 127 306 171 427 14 36 8 47 109 -214z m179 -1655 c534
-105 974 -489 1145 -998 56 -169 69 -255 70 -477 0 -179 -3 -218 -23 -310
-132 -592 -578 -1036 -1173 -1166 -120 -27 -466 -27 -589 -1 -463 99 -847 393
-1056 810 -98 193 -143 379 -151 617 -6 191 13 334 68 506 175 547 648 948
1217 1029 124 18 376 13 492 -10z m-2330 -2373 l0 -248 38 -18 c20 -10 118
-54 217 -98 99 -44 183 -83 187 -87 4 -4 -96 -40 -223 -81 -185 -59 -233 -78
-238 -95 -5 -11 -18 -119 -31 -240 -12 -121 -25 -223 -29 -227 -3 -3 -71 83
-149 191 l-144 198 -206 -43 c-282 -59 -290 -61 -276 -43 7 8 73 99 148 203
l136 188 -19 32 c-75 125 -222 389 -218 393 3 2 109 -29 235 -70 l229 -74 164
183 c90 100 167 183 172 183 4 1 7 -111 7 -247z m4639 -37 c124 47 228 84 232
83 4 -2 -42 -101 -102 -221 l-109 -217 154 -193 c85 -105 153 -193 151 -195
-2 -2 -107 13 -233 32 -127 20 -237 36 -244 36 -7 0 -73 -92 -147 -205 -74
-113 -135 -204 -137 -202 -2 2 -21 110 -43 241 -21 131 -42 240 -45 243 -3 4
-95 30 -203 60 -109 29 -216 58 -237 64 l-39 11 219 113 219 113 0 89 c0 48
-4 162 -8 253 l-8 165 178 -178 178 -177 224 85z"/>
</g>
</svg>
